<svg width="950" height="950" viewBox="0 0 950 950" fill="none" xmlns="http://www.w3.org/2000/svg">
<rect width="950" height="950" rx="200" fill="#0095FF"/>
<path d="M393.196 205.636C393.196 170.491 424.893 142 463.997 142C503.097 142 534.797 170.491 534.797 205.636C534.797 222.177 528.82 237.244 518.417 248.561C498.493 270.235 468.717 292.066 468.717 320.182V329.663M468.717 329.663C493.1 329.38 517.58 336.153 538.15 350.019L573.41 373.787M468.717 329.663C444.533 329.945 420.447 337.166 400.367 351.291L163.844 517.667C121.441 547.493 144.907 608.667 198.751 608.667H275.333M675.333 608.667H751.917C806.35 608.667 829.447 546.383 785.9 517.03L708.667 464.967" stroke="white" stroke-width="50" stroke-linecap="round"/>
<path d="M542 808.667H408.666C345.812 808.667 314.385 808.667 294.859 789.14C275.333 769.613 275.333 738.187 275.333 675.333C275.333 612.48 275.333 581.053 294.859 561.527C314.385 542 345.812 542 408.666 542H542C604.853 542 636.28 542 655.806 561.527C675.333 581.053 675.333 612.48 675.333 675.333C675.333 738.187 675.333 769.613 655.806 789.14" stroke="white" stroke-width="50" stroke-linecap="round"/>
</svg>
